# xmcd CD database file
#
# Track frame offsets:
#	150
#	18752
#	34572
#	52577
#	73884
#	97183
#	112096
#	130974
#	149463
#	169651
#	187502
#	204006
#
# Disc length: 2851 seconds
#
# Revision: 1
# Processed by: cddbd v1.5.2PL0 Copyright (c) Steve Scherf et al.
# Submitted via: CDex 1.70beta3
#
DISCID=990b210c
DTITLE=X.Y.Z.→A - IV
DYEAR=2003
DGENRE=J-Loud
TTITLE0=Power Game
TTITLE1=So Bad! Big Time!
TTITLE2=Long Way
TTITLE3=Chasing Shadows
TTITLE4=Suspirium
TTITLE5=Ready For Thunder
TTITLE6=Open Your Heart
TTITLE7=Tomorrow
TTITLE8=Can't Get Started
TTITLE9=Why Don't Ya Rock And Roll
TTITLE10=Go On
TTITLE11=Promised Land
EXTD=YEAR: 2003
EXTT0=
EXTT1=
EXTT2=
EXTT3=
EXTT4=
EXTT5=
EXTT6=
EXTT7=
EXTT8=
EXTT9=
EXTT10=
EXTT11=
PLAYORDER=
